<svg version="1.0" xmlns="http://www.w3.org/2000/svg" width="256.000000pt" height="188.000000pt" viewBox="0 0 256.000000 188.000000" preserveAspectRatio="xMidYMid meet">

<g transform="translate(0.000000,188.000000) scale(0.100000,-0.100000)" fill="#d4caca" stroke="none">
<path d="M1057 1844 c-4 -4 -7 -146 -7 -316 0 -171 -3 -308 -7 -306 -5 2 -42 19 -83 39 -144 71 -295 87 -442 50 -496 -127 -665 -735 -304 -1093 118 -118 253 -177 419 -186 60 -3 121 0 155 7 78 17 226 91 288 143 76 64 108 105 249 313 157 232 212 302 303 387 104 96 213 149 340 166 122 17 246 -29 326 -120 l42 -48 99 101 100 100 -72 68 c-164 155 -384 214 -621 165 -169 -34 -270 -92 -417 -239 -93 -93 -134 -145 -265 -340 -222 -330 -295 -399 -446 -424 -151 -24 -310 63 -382 209 -24 49 -27 66 -27 160 0 96 3 110 29 161 116 229 418 282 599 106 58 -57 104 -150 113 -229 l7 -58 98 146 c54 80 114 165 134 189 l35 44 -2 403 -3 403 -126 3 c-69 1 -128 -1 -132 -4z" fill="#d4caca"/>
<path d="M1744 914 c-48 -32 -174 -154 -174 -169 0 -19 73 -82 125 -108 61 -30 178 -66 347 -106 169 -40 188 -50 188 -100 0 -47 -32 -97 -80 -123 -28 -15 -49 -18 -101 -15 -108 7 -218 69 -269 153 l-22 34 -149 0 -150 0 6 -22 c16 -51 80 -160 123 -211 127 -145 282 -217 473 -217 149 0 255 46 357 154 108 115 144 235 108 358 -38 132 -157 209 -421 273 -205 49 -271 72 -294 101 -10 13 -21 24 -24 24 -2 0 -22 -12 -43 -26z" fill="#d4caca"/>
</g>
</svg>